<svg width="55" height="55" viewBox="0 0 55 55" fill="none" xmlns="http://www.w3.org/2000/svg">
<path d="M48.6489 45.0407C51.4718 41.647 53.4352 37.6239 54.373 33.3116C55.3107 28.9994 55.1952 24.5249 54.0362 20.2667C52.8772 16.0085 50.7088 12.0918 47.7145 8.84804C44.7201 5.60426 40.988 3.1288 36.8336 1.63105C32.6793 0.133305 28.225 -0.34266 23.8477 0.24342C19.4703 0.8295 15.2986 2.46038 11.6855 4.99811C8.07234 7.53583 5.12406 10.9057 3.09005 14.8227C1.05604 18.7398 -0.00385785 23.0886 1.05511e-05 27.5015C0.00149499 33.9166 2.26398 40.1262 6.39047 45.0407L6.35115 45.0741C6.48875 45.2391 6.64601 45.3805 6.78754 45.5435C6.96445 45.7458 7.15512 45.9363 7.33793 46.1327C7.88832 46.7298 8.45444 47.3033 9.04808 47.8415C9.22892 48.0065 9.41566 48.1597 9.59847 48.3168C10.2275 48.8589 10.8742 49.3735 11.5445 49.8527C11.631 49.9116 11.7096 49.9882 11.7961 50.0491V50.0255C16.4 53.2627 21.8921 55 27.5216 55C33.1512 55 38.6433 53.2627 43.2472 50.0255V50.0491C43.3336 49.9882 43.4103 49.9116 43.4988 49.8527C44.1671 49.3715 44.8158 48.8589 45.4448 48.3168C45.6276 48.1597 45.8143 48.0045 45.9952 47.8415C46.5888 47.3014 47.1549 46.7298 47.7053 46.1327C47.8881 45.9363 48.0768 45.7458 48.2557 45.5435C48.3953 45.3805 48.5545 45.2391 48.6921 45.0721L48.6489 45.0407ZM27.5197 11.7889C29.2692 11.7889 30.9794 12.3073 32.434 13.2784C33.8887 14.2496 35.0224 15.63 35.6919 17.245C36.3614 18.8599 36.5366 20.637 36.1953 22.3515C35.854 24.066 35.0115 25.6408 33.7745 26.8769C32.5374 28.113 30.9612 28.9547 29.2454 29.2958C27.5295 29.6368 25.7509 29.4618 24.1346 28.7928C22.5183 28.1239 21.1368 26.991 20.1648 25.5376C19.1928 24.0841 18.6741 22.3753 18.6741 20.6272C18.6741 18.2832 19.606 16.0351 21.2649 14.3776C22.9238 12.7201 25.1737 11.7889 27.5197 11.7889ZM11.8079 45.0407C11.842 42.4618 12.8909 40 14.7277 38.1879C16.5644 36.3758 19.0414 35.3591 21.6226 35.3578H33.4167C35.998 35.3591 38.4749 36.3758 40.3117 38.1879C42.1484 40 43.1973 42.4618 43.2314 45.0407C38.9204 48.9224 33.3229 51.0706 27.5197 51.0706C21.7164 51.0706 16.119 48.9224 11.8079 45.0407Z" fill="#03264F"/>
</svg>
